<svg xmlns="http://www.w3.org/2000/svg" xmlns:xlink="http://www.w3.org/1999/xlink" width="86" zoomAndPan="magnify" viewBox="0 0 64.5 30.000001" height="40" preserveAspectRatio="xMidYMid meet" version="1.0"><defs><g/><clipPath id="dae60b7e1a"><path d="M 0.796875 1 L 14 1 L 14 19 L 0.796875 19 Z M 0.796875 1 " clip-rule="nonzero"/></clipPath><clipPath id="32209213d6"><path d="M 51 6 L 63.21875 6 L 63.21875 23 L 51 23 Z M 51 6 " clip-rule="nonzero"/></clipPath><clipPath id="2b721d19f2"><path d="M 8 2 L 11 2 L 11 5.871094 L 8 5.871094 Z M 8 2 " clip-rule="nonzero"/></clipPath><clipPath id="dec16c4426"><path d="M 27 1 L 29.714844 1 L 29.714844 5 L 27 5 Z M 27 1 " clip-rule="nonzero"/></clipPath><clipPath id="7888703d54"><rect x="0" width="30" y="0" height="6"/></clipPath></defs><g clip-path="url(#dae60b7e1a)"><path fill="#ffffff" d="M 8.605469 9.589844 C 12.320312 10.082031 13.398438 11.914062 13.398438 13.8125 C 13.398438 16.476562 11.277344 18.355469 7.753906 18.355469 C 7.054688 18.355469 5.644531 18.285156 3.714844 18.285156 C 2.613281 18.285156 1.457031 18.308594 0.804688 18.355469 L 0.804688 17.886719 C 2.398438 17.816406 2.707031 17.578125 2.707031 15.871094 L 2.707031 4.246094 C 2.707031 2.539062 2.398438 2.300781 0.804688 2.230469 L 0.804688 1.761719 C 1.457031 1.808594 2.636719 1.832031 3.671875 1.832031 C 5.152344 1.832031 6.652344 1.785156 7.214844 1.785156 C 10.507812 1.785156 12.171875 3.308594 12.171875 5.46875 C 12.171875 7.128906 11.230469 8.742188 8.601562 9.542969 Z M 4.886719 4.246094 L 4.886719 9.542969 L 6.472656 9.542969 C 9.234375 9.542969 9.925781 7.757812 9.925781 5.722656 C 9.925781 3.421875 8.984375 2.230469 6.632812 2.230469 C 5.199219 2.230469 4.886719 2.632812 4.886719 4.246094 Z M 11.050781 13.710938 C 11.050781 11.328125 9.84375 9.945312 6.863281 9.945312 L 4.886719 9.945312 L 4.886719 15.871094 C 4.886719 17.507812 5.199219 17.816406 6.65625 17.816406 C 9.730469 17.816406 11.050781 16.339844 11.050781 13.710938 Z M 11.050781 13.710938 " fill-opacity="1" fill-rule="nonzero"/></g><path fill="#ffffff" d="M 25.800781 15.828125 C 25.800781 17.234375 26.226562 17.886719 27.589844 17.886719 L 27.589844 18.378906 C 27.097656 18.332031 26.605469 18.308594 26.132812 18.308594 C 25.300781 18.285156 24.488281 18.394531 23.691406 18.640625 L 23.691406 15.871094 C 22.886719 17.910156 21.339844 18.6875 19.835938 18.6875 C 18.890625 18.746094 18.078125 18.449219 17.394531 17.792969 C 16.808594 17.164062 16.613281 16.203125 16.613281 14.726562 L 16.613281 8.84375 C 16.613281 7.4375 16.199219 6.773438 14.835938 6.773438 L 14.835938 6.28125 C 15.328125 6.328125 15.820312 6.351562 16.292969 6.351562 C 17.125 6.371094 17.9375 6.265625 18.734375 6.03125 L 18.734375 15.242188 C 18.734375 16.695312 18.828125 17.933594 20.511719 17.933594 C 22.347656 17.933594 23.691406 16.078125 23.691406 13.6875 L 23.691406 8.84375 C 23.691406 7.4375 23.265625 6.773438 21.902344 6.773438 L 21.902344 6.28125 C 22.394531 6.328125 22.886719 6.351562 23.359375 6.351562 C 24.191406 6.375 25.003906 6.265625 25.800781 6.03125 Z M 25.800781 15.828125 " fill-opacity="1" fill-rule="nonzero"/><path fill="#ffffff" d="M 35.53125 6.820312 C 35.644531 6.929688 35.785156 6.996094 35.941406 7.015625 C 36.21875 7.015625 36.390625 6.683594 36.46875 5.984375 L 37.007812 5.984375 C 36.941406 6.84375 36.917969 7.953125 36.917969 9.96875 L 36.378906 9.96875 C 36.089844 8.226562 35.300781 6.410156 33.175781 6.410156 C 32.074219 6.410156 31.25 7.039062 31.25 8.203125 C 31.25 9.613281 32.660156 10.265625 34.265625 11.304688 C 36.046875 12.449219 37.480469 13.480469 37.480469 15.402344 C 37.480469 17.554688 35.597656 18.6875 33.464844 18.6875 C 32.824219 18.699219 32.203125 18.589844 31.605469 18.355469 C 31.261719 18.183594 30.9375 17.972656 30.640625 17.726562 C 30.582031 17.664062 30.507812 17.632812 30.425781 17.632812 C 30.21875 17.632812 30.035156 17.933594 29.941406 18.515625 L 29.402344 18.515625 C 29.472656 17.507812 29.496094 16.203125 29.496094 13.835938 L 30.035156 13.835938 C 30.34375 16.457031 30.953125 18.21875 33.304688 18.21875 C 34.246094 18.21875 35.390625 17.65625 35.390625 15.988281 C 35.390625 14.625 34.269531 13.882812 32.730469 12.917969 C 31.019531 11.84375 29.496094 10.929688 29.496094 8.984375 C 29.496094 6.898438 31.113281 5.960938 32.972656 5.960938 C 33.921875 5.953125 34.777344 6.238281 35.53125 6.820312 Z M 35.53125 6.820312 " fill-opacity="1" fill-rule="nonzero"/><path fill="#ffffff" d="M 50.707031 12.339844 C 50.707031 16.550781 48.285156 18.6875 45.464844 18.6875 C 44.875 18.6875 44.308594 18.570312 43.769531 18.332031 C 43.230469 18.089844 42.761719 17.753906 42.367188 17.316406 L 40.691406 18.734375 L 40.300781 18.5625 C 40.414062 18.121094 40.46875 17.671875 40.460938 17.214844 L 40.460938 2.816406 C 40.460938 1.40625 40.039062 0.753906 38.671875 0.753906 L 38.671875 0.261719 C 39.164062 0.308594 39.660156 0.332031 40.128906 0.332031 C 40.960938 0.355469 41.777344 0.246094 42.574219 0 L 42.574219 8.46875 C 42.714844 8.097656 42.910156 7.757812 43.15625 7.449219 C 43.402344 7.140625 43.691406 6.871094 44.019531 6.648438 C 44.347656 6.425781 44.699219 6.253906 45.078125 6.136719 C 45.457031 6.019531 45.847656 5.960938 46.242188 5.960938 C 48.804688 5.960938 50.707031 8.066406 50.707031 12.339844 Z M 48.421875 12.339844 C 48.421875 8.539062 47.503906 6.660156 45.554688 6.660156 C 44.304688 6.660156 43.054688 7.65625 42.570312 9.578125 L 42.570312 16.984375 C 43.308594 17.757812 44.210938 18.144531 45.28125 18.152344 C 47.371094 18.148438 48.425781 16.320312 48.425781 12.339844 Z M 48.421875 12.339844 " fill-opacity="1" fill-rule="nonzero"/><g clip-path="url(#32209213d6)"><path fill="#ffffff" d="M 63.210938 6.28125 L 63.210938 6.75 C 62.625 6.820312 62.132812 7.199219 61.6875 8.398438 L 57.832031 18.46875 L 57.027344 20.507812 C 56.824219 21.136719 56.488281 21.6875 56.015625 22.15625 C 55.480469 22.582031 54.867188 22.785156 54.179688 22.761719 C 53.285156 22.761719 52.585938 22.269531 52.585938 21.355469 C 52.574219 21.183594 52.597656 21.023438 52.660156 20.863281 C 52.71875 20.707031 52.808594 20.570312 52.925781 20.449219 C 53.046875 20.332031 53.1875 20.242188 53.347656 20.183594 C 53.503906 20.125 53.667969 20.105469 53.835938 20.117188 C 53.992188 20.101562 54.144531 20.117188 54.289062 20.167969 C 54.4375 20.214844 54.570312 20.292969 54.683594 20.398438 C 54.796875 20.503906 54.886719 20.625 54.945312 20.769531 C 55.007812 20.914062 55.035156 21.0625 55.03125 21.214844 C 55.03125 21.4375 54.976562 21.640625 54.863281 21.832031 C 54.75 22.019531 54.59375 22.167969 54.398438 22.269531 C 54.445312 22.289062 54.488281 22.296875 54.535156 22.292969 C 55.386719 22.292969 56.039062 21.753906 56.53125 20.460938 L 57.371094 18.320312 L 53.101562 8.089844 C 52.492188 6.867188 51.886719 6.773438 51.507812 6.773438 L 51.507812 6.28125 C 52.273438 6.386719 53.039062 6.433594 53.8125 6.433594 C 54.765625 6.433594 55.921875 6.351562 56.863281 6.28125 L 56.863281 6.773438 C 55.980469 6.773438 55.222656 6.773438 55.222656 7.585938 C 55.25 7.992188 55.351562 8.375 55.523438 8.742188 L 58.355469 15.746094 L 60.949219 8.960938 C 61.09375 8.617188 61.179688 8.257812 61.203125 7.886719 C 61.203125 7.140625 60.640625 6.832031 59.445312 6.753906 L 59.445312 6.28125 C 60.273438 6.328125 60.695312 6.351562 61.417969 6.351562 C 62.15625 6.351562 62.71875 6.328125 63.210938 6.28125 Z M 63.210938 6.28125 " fill-opacity="1" fill-rule="nonzero"/></g><g transform="matrix(1, 0, 0, 1, 18, 22)"><g clip-path="url(#7888703d54)"><g fill="#ffffff" fill-opacity="1"><g transform="translate(1.239034, 4.419357)"><g><path d="M 1.03125 -2.796875 C 1.164062 -2.796875 1.269531 -2.78125 1.34375 -2.75 C 1.414062 -2.71875 1.476562 -2.679688 1.53125 -2.640625 C 1.5625 -2.617188 1.585938 -2.601562 1.609375 -2.59375 C 1.628906 -2.59375 1.644531 -2.59375 1.65625 -2.59375 C 1.6875 -2.59375 1.707031 -2.601562 1.71875 -2.625 C 1.726562 -2.65625 1.738281 -2.703125 1.75 -2.765625 L 1.84375 -2.765625 C 1.832031 -2.710938 1.828125 -2.65625 1.828125 -2.59375 C 1.828125 -2.53125 1.820312 -2.445312 1.8125 -2.34375 C 1.8125 -2.238281 1.8125 -2.101562 1.8125 -1.9375 L 1.734375 -1.9375 C 1.722656 -2.0625 1.691406 -2.179688 1.640625 -2.296875 C 1.597656 -2.421875 1.53125 -2.519531 1.4375 -2.59375 C 1.34375 -2.664062 1.222656 -2.703125 1.078125 -2.703125 C 0.953125 -2.703125 0.84375 -2.660156 0.75 -2.578125 C 0.664062 -2.503906 0.625 -2.40625 0.625 -2.28125 C 0.625 -2.164062 0.648438 -2.066406 0.703125 -1.984375 C 0.765625 -1.910156 0.84375 -1.84375 0.9375 -1.78125 C 1.039062 -1.71875 1.15625 -1.644531 1.28125 -1.5625 C 1.414062 -1.476562 1.535156 -1.394531 1.640625 -1.3125 C 1.742188 -1.226562 1.820312 -1.140625 1.875 -1.046875 C 1.9375 -0.953125 1.96875 -0.832031 1.96875 -0.6875 C 1.96875 -0.519531 1.925781 -0.378906 1.84375 -0.265625 C 1.769531 -0.160156 1.664062 -0.0820312 1.53125 -0.03125 C 1.40625 0.0195312 1.257812 0.046875 1.09375 0.046875 C 0.957031 0.046875 0.84375 0.03125 0.75 0 C 0.664062 -0.0195312 0.59375 -0.0507812 0.53125 -0.09375 C 0.476562 -0.125 0.4375 -0.140625 0.40625 -0.140625 C 0.382812 -0.140625 0.363281 -0.125 0.34375 -0.09375 C 0.332031 -0.0703125 0.328125 -0.03125 0.328125 0.03125 L 0.234375 0.03125 C 0.234375 -0.03125 0.234375 -0.0976562 0.234375 -0.171875 C 0.242188 -0.242188 0.25 -0.34375 0.25 -0.46875 C 0.25 -0.59375 0.25 -0.75 0.25 -0.9375 L 0.34375 -0.9375 C 0.351562 -0.78125 0.378906 -0.628906 0.421875 -0.484375 C 0.472656 -0.347656 0.546875 -0.238281 0.640625 -0.15625 C 0.742188 -0.0703125 0.878906 -0.03125 1.046875 -0.03125 C 1.128906 -0.03125 1.207031 -0.046875 1.28125 -0.078125 C 1.363281 -0.109375 1.425781 -0.160156 1.46875 -0.234375 C 1.507812 -0.304688 1.53125 -0.398438 1.53125 -0.515625 C 1.53125 -0.617188 1.503906 -0.710938 1.453125 -0.796875 C 1.410156 -0.878906 1.34375 -0.953125 1.25 -1.015625 C 1.164062 -1.085938 1.0625 -1.160156 0.9375 -1.234375 C 0.820312 -1.304688 0.707031 -1.378906 0.59375 -1.453125 C 0.488281 -1.535156 0.40625 -1.628906 0.34375 -1.734375 C 0.28125 -1.835938 0.25 -1.960938 0.25 -2.109375 C 0.25 -2.265625 0.285156 -2.390625 0.359375 -2.484375 C 0.429688 -2.585938 0.523438 -2.664062 0.640625 -2.71875 C 0.765625 -2.769531 0.894531 -2.796875 1.03125 -2.796875 Z M 1.03125 -2.796875 "/></g></g></g><g fill="#ffffff" fill-opacity="1"><g transform="translate(3.379695, 4.419357)"><g><path d="M 0.78125 -3.03125 L 0.78125 -0.359375 C 0.78125 -0.253906 0.800781 -0.179688 0.84375 -0.140625 C 0.882812 -0.0976562 0.957031 -0.078125 1.0625 -0.078125 L 1.0625 0 C 1.007812 0 0.9375 0 0.84375 0 C 0.757812 -0.0078125 0.671875 -0.015625 0.578125 -0.015625 C 0.484375 -0.015625 0.390625 -0.0078125 0.296875 0 C 0.203125 0 0.128906 0 0.078125 0 L 0.078125 -0.078125 C 0.179688 -0.078125 0.253906 -0.0976562 0.296875 -0.140625 C 0.335938 -0.179688 0.359375 -0.253906 0.359375 -0.359375 L 0.359375 -2.578125 C 0.359375 -2.691406 0.335938 -2.773438 0.296875 -2.828125 C 0.265625 -2.878906 0.191406 -2.90625 0.078125 -2.90625 L 0.078125 -3 C 0.160156 -2.988281 0.242188 -2.984375 0.328125 -2.984375 C 0.410156 -2.984375 0.488281 -2.988281 0.5625 -3 C 0.644531 -3.007812 0.71875 -3.019531 0.78125 -3.03125 Z M 0.78125 -3.03125 "/></g></g></g><g fill="#ffffff" fill-opacity="1"><g transform="translate(4.479061, 4.419357)"><g><path d="M 1.0625 -2.046875 C 1.289062 -2.046875 1.46875 -1.976562 1.59375 -1.84375 C 1.726562 -1.707031 1.796875 -1.492188 1.796875 -1.203125 L 0.453125 -1.203125 L 0.453125 -1.265625 L 1.390625 -1.265625 C 1.390625 -1.390625 1.375 -1.503906 1.34375 -1.609375 C 1.320312 -1.722656 1.285156 -1.8125 1.234375 -1.875 C 1.191406 -1.9375 1.128906 -1.96875 1.046875 -1.96875 C 0.941406 -1.96875 0.847656 -1.910156 0.765625 -1.796875 C 0.679688 -1.679688 0.628906 -1.492188 0.609375 -1.234375 L 0.625 -1.21875 C 0.625 -1.175781 0.617188 -1.132812 0.609375 -1.09375 C 0.609375 -1.050781 0.609375 -1.007812 0.609375 -0.96875 C 0.609375 -0.789062 0.632812 -0.640625 0.6875 -0.515625 C 0.75 -0.398438 0.820312 -0.3125 0.90625 -0.25 C 0.988281 -0.1875 1.078125 -0.15625 1.171875 -0.15625 C 1.242188 -0.15625 1.3125 -0.164062 1.375 -0.1875 C 1.4375 -0.207031 1.5 -0.242188 1.5625 -0.296875 C 1.625 -0.359375 1.675781 -0.429688 1.71875 -0.515625 L 1.796875 -0.484375 C 1.765625 -0.398438 1.71875 -0.316406 1.65625 -0.234375 C 1.59375 -0.148438 1.507812 -0.0820312 1.40625 -0.03125 C 1.3125 0.0195312 1.195312 0.046875 1.0625 0.046875 C 0.875 0.046875 0.710938 0.0078125 0.578125 -0.0625 C 0.453125 -0.144531 0.351562 -0.257812 0.28125 -0.40625 C 0.207031 -0.5625 0.171875 -0.75 0.171875 -0.96875 C 0.171875 -1.195312 0.207031 -1.390625 0.28125 -1.546875 C 0.351562 -1.710938 0.457031 -1.835938 0.59375 -1.921875 C 0.726562 -2.003906 0.882812 -2.046875 1.0625 -2.046875 Z M 1.0625 -2.046875 "/></g></g></g><g fill="#ffffff" fill-opacity="1"><g transform="translate(6.433914, 4.419357)"><g><path d="M 1.0625 -2.046875 C 1.289062 -2.046875 1.46875 -1.976562 1.59375 -1.84375 C 1.726562 -1.707031 1.796875 -1.492188 1.796875 -1.203125 L 0.453125 -1.203125 L 0.453125 -1.265625 L 1.390625 -1.265625 C 1.390625 -1.390625 1.375 -1.503906 1.34375 -1.609375 C 1.320312 -1.722656 1.285156 -1.8125 1.234375 -1.875 C 1.191406 -1.9375 1.128906 -1.96875 1.046875 -1.96875 C 0.941406 -1.96875 0.847656 -1.910156 0.765625 -1.796875 C 0.679688 -1.679688 0.628906 -1.492188 0.609375 -1.234375 L 0.625 -1.21875 C 0.625 -1.175781 0.617188 -1.132812 0.609375 -1.09375 C 0.609375 -1.050781 0.609375 -1.007812 0.609375 -0.96875 C 0.609375 -0.789062 0.632812 -0.640625 0.6875 -0.515625 C 0.75 -0.398438 0.820312 -0.3125 0.90625 -0.25 C 0.988281 -0.1875 1.078125 -0.15625 1.171875 -0.15625 C 1.242188 -0.15625 1.3125 -0.164062 1.375 -0.1875 C 1.4375 -0.207031 1.5 -0.242188 1.5625 -0.296875 C 1.625 -0.359375 1.675781 -0.429688 1.71875 -0.515625 L 1.796875 -0.484375 C 1.765625 -0.398438 1.71875 -0.316406 1.65625 -0.234375 C 1.59375 -0.148438 1.507812 -0.0820312 1.40625 -0.03125 C 1.3125 0.0195312 1.195312 0.046875 1.0625 0.046875 C 0.875 0.046875 0.710938 0.0078125 0.578125 -0.0625 C 0.453125 -0.144531 0.351562 -0.257812 0.28125 -0.40625 C 0.207031 -0.5625 0.171875 -0.75 0.171875 -0.96875 C 0.171875 -1.195312 0.207031 -1.390625 0.28125 -1.546875 C 0.351562 -1.710938 0.457031 -1.835938 0.59375 -1.921875 C 0.726562 -2.003906 0.882812 -2.046875 1.0625 -2.046875 Z M 1.0625 -2.046875 "/></g></g></g><g clip-path="url(#2b721d19f2)"><g fill="#ffffff" fill-opacity="1"><g transform="translate(8.388766, 4.419357)"><g><path d="M 0.78125 -2.046875 L 0.78125 0.328125 C 0.78125 0.441406 0.8125 0.519531 0.875 0.5625 C 0.9375 0.601562 1.023438 0.625 1.140625 0.625 L 1.140625 0.703125 C 1.078125 0.703125 0.992188 0.695312 0.890625 0.6875 C 0.785156 0.6875 0.671875 0.6875 0.546875 0.6875 C 0.460938 0.6875 0.378906 0.6875 0.296875 0.6875 C 0.210938 0.695312 0.148438 0.703125 0.109375 0.703125 L 0.109375 0.625 C 0.203125 0.625 0.265625 0.601562 0.296875 0.5625 C 0.335938 0.53125 0.359375 0.46875 0.359375 0.375 L 0.359375 -1.578125 C 0.359375 -1.691406 0.335938 -1.773438 0.296875 -1.828125 C 0.265625 -1.890625 0.191406 -1.921875 0.078125 -1.921875 L 0.078125 -2 C 0.160156 -1.988281 0.242188 -1.984375 0.328125 -1.984375 C 0.410156 -1.984375 0.488281 -1.988281 0.5625 -2 C 0.644531 -2.007812 0.71875 -2.023438 0.78125 -2.046875 Z M 1.390625 -2.046875 C 1.523438 -2.046875 1.644531 -2.007812 1.75 -1.9375 C 1.863281 -1.863281 1.953125 -1.753906 2.015625 -1.609375 C 2.078125 -1.472656 2.109375 -1.300781 2.109375 -1.09375 C 2.109375 -0.9375 2.085938 -0.785156 2.046875 -0.640625 C 2.015625 -0.503906 1.960938 -0.382812 1.890625 -0.28125 C 1.816406 -0.175781 1.722656 -0.09375 1.609375 -0.03125 C 1.492188 0.0195312 1.363281 0.046875 1.21875 0.046875 C 1.101562 0.046875 1 0.0234375 0.90625 -0.015625 C 0.820312 -0.0664062 0.765625 -0.128906 0.734375 -0.203125 L 0.765625 -0.265625 C 0.796875 -0.191406 0.84375 -0.132812 0.90625 -0.09375 C 0.96875 -0.0507812 1.046875 -0.03125 1.140625 -0.03125 C 1.273438 -0.03125 1.378906 -0.0703125 1.453125 -0.15625 C 1.523438 -0.25 1.578125 -0.367188 1.609375 -0.515625 C 1.640625 -0.671875 1.65625 -0.84375 1.65625 -1.03125 C 1.65625 -1.238281 1.640625 -1.40625 1.609375 -1.53125 C 1.578125 -1.664062 1.53125 -1.765625 1.46875 -1.828125 C 1.40625 -1.890625 1.332031 -1.921875 1.25 -1.921875 C 1.132812 -1.921875 1.03125 -1.875 0.9375 -1.78125 C 0.84375 -1.6875 0.785156 -1.546875 0.765625 -1.359375 L 0.71875 -1.4375 C 0.75 -1.632812 0.828125 -1.785156 0.953125 -1.890625 C 1.078125 -1.992188 1.222656 -2.046875 1.390625 -2.046875 Z M 1.390625 -2.046875 "/></g></g></g></g><g fill="#ffffff" fill-opacity="1"><g transform="translate(10.661041, 4.419357)"><g/></g></g><g fill="#ffffff" fill-opacity="1"><g transform="translate(11.605565, 4.419357)"><g><path d="M 0.15625 -2.75 C 0.207031 -2.738281 0.28125 -2.734375 0.375 -2.734375 C 0.46875 -2.734375 0.5625 -2.734375 0.65625 -2.734375 C 0.78125 -2.734375 0.898438 -2.734375 1.015625 -2.734375 C 1.128906 -2.734375 1.207031 -2.734375 1.25 -2.734375 C 1.46875 -2.734375 1.648438 -2.703125 1.796875 -2.640625 C 1.941406 -2.585938 2.050781 -2.507812 2.125 -2.40625 C 2.195312 -2.3125 2.234375 -2.195312 2.234375 -2.0625 C 2.234375 -1.976562 2.21875 -1.890625 2.1875 -1.796875 C 2.15625 -1.710938 2.097656 -1.632812 2.015625 -1.5625 C 1.941406 -1.488281 1.832031 -1.425781 1.6875 -1.375 C 1.550781 -1.320312 1.378906 -1.296875 1.171875 -1.296875 L 0.796875 -1.296875 L 0.796875 -1.375 L 1.125 -1.375 C 1.300781 -1.375 1.4375 -1.398438 1.53125 -1.453125 C 1.625 -1.515625 1.6875 -1.59375 1.71875 -1.6875 C 1.75 -1.789062 1.765625 -1.898438 1.765625 -2.015625 C 1.765625 -2.222656 1.71875 -2.382812 1.625 -2.5 C 1.539062 -2.613281 1.390625 -2.671875 1.171875 -2.671875 C 1.054688 -2.671875 0.984375 -2.644531 0.953125 -2.59375 C 0.921875 -2.550781 0.90625 -2.460938 0.90625 -2.328125 L 0.90625 -0.40625 C 0.90625 -0.3125 0.910156 -0.238281 0.921875 -0.1875 C 0.941406 -0.144531 0.972656 -0.113281 1.015625 -0.09375 C 1.054688 -0.0820312 1.117188 -0.078125 1.203125 -0.078125 L 1.203125 0 C 1.140625 0 1.0625 0 0.96875 0 C 0.875 -0.0078125 0.78125 -0.015625 0.6875 -0.015625 C 0.570312 -0.015625 0.46875 -0.0078125 0.375 0 C 0.28125 0 0.207031 0 0.15625 0 L 0.15625 -0.078125 C 0.238281 -0.078125 0.300781 -0.0820312 0.34375 -0.09375 C 0.394531 -0.113281 0.425781 -0.144531 0.4375 -0.1875 C 0.445312 -0.238281 0.453125 -0.3125 0.453125 -0.40625 L 0.453125 -2.328125 C 0.453125 -2.421875 0.445312 -2.488281 0.4375 -2.53125 C 0.425781 -2.582031 0.394531 -2.613281 0.34375 -2.625 C 0.300781 -2.644531 0.238281 -2.660156 0.15625 -2.671875 Z M 0.8125 -1.375 C 0.9375 -1.363281 1.039062 -1.351562 1.125 -1.34375 C 1.207031 -1.34375 1.273438 -1.335938 1.328125 -1.328125 C 1.378906 -1.328125 1.425781 -1.320312 1.46875 -1.3125 C 1.664062 -1.289062 1.804688 -1.238281 1.890625 -1.15625 C 1.984375 -1.082031 2.046875 -0.960938 2.078125 -0.796875 L 2.1875 -0.40625 C 2.207031 -0.289062 2.226562 -0.207031 2.25 -0.15625 C 2.28125 -0.113281 2.320312 -0.09375 2.375 -0.09375 C 2.414062 -0.101562 2.445312 -0.117188 2.46875 -0.140625 C 2.5 -0.160156 2.53125 -0.191406 2.5625 -0.234375 L 2.625 -0.1875 C 2.5625 -0.101562 2.5 -0.0390625 2.4375 0 C 2.375 0.03125 2.285156 0.046875 2.171875 0.046875 C 2.066406 0.046875 1.972656 0.0195312 1.890625 -0.03125 C 1.816406 -0.09375 1.757812 -0.203125 1.71875 -0.359375 L 1.640625 -0.75 C 1.617188 -0.863281 1.59375 -0.957031 1.5625 -1.03125 C 1.539062 -1.113281 1.503906 -1.175781 1.453125 -1.21875 C 1.398438 -1.269531 1.328125 -1.296875 1.234375 -1.296875 L 0.8125 -1.296875 Z M 0.8125 -1.375 "/></g></g></g><g fill="#ffffff" fill-opacity="1"><g transform="translate(14.172035, 4.419357)"><g><path d="M 1.0625 -2.046875 C 1.289062 -2.046875 1.46875 -1.976562 1.59375 -1.84375 C 1.726562 -1.707031 1.796875 -1.492188 1.796875 -1.203125 L 0.453125 -1.203125 L 0.453125 -1.265625 L 1.390625 -1.265625 C 1.390625 -1.390625 1.375 -1.503906 1.34375 -1.609375 C 1.320312 -1.722656 1.285156 -1.8125 1.234375 -1.875 C 1.191406 -1.9375 1.128906 -1.96875 1.046875 -1.96875 C 0.941406 -1.96875 0.847656 -1.910156 0.765625 -1.796875 C 0.679688 -1.679688 0.628906 -1.492188 0.609375 -1.234375 L 0.625 -1.21875 C 0.625 -1.175781 0.617188 -1.132812 0.609375 -1.09375 C 0.609375 -1.050781 0.609375 -1.007812 0.609375 -0.96875 C 0.609375 -0.789062 0.632812 -0.640625 0.6875 -0.515625 C 0.75 -0.398438 0.820312 -0.3125 0.90625 -0.25 C 0.988281 -0.1875 1.078125 -0.15625 1.171875 -0.15625 C 1.242188 -0.15625 1.3125 -0.164062 1.375 -0.1875 C 1.4375 -0.207031 1.5 -0.242188 1.5625 -0.296875 C 1.625 -0.359375 1.675781 -0.429688 1.71875 -0.515625 L 1.796875 -0.484375 C 1.765625 -0.398438 1.71875 -0.316406 1.65625 -0.234375 C 1.59375 -0.148438 1.507812 -0.0820312 1.40625 -0.03125 C 1.3125 0.0195312 1.195312 0.046875 1.0625 0.046875 C 0.875 0.046875 0.710938 0.0078125 0.578125 -0.0625 C 0.453125 -0.144531 0.351562 -0.257812 0.28125 -0.40625 C 0.207031 -0.5625 0.171875 -0.75 0.171875 -0.96875 C 0.171875 -1.195312 0.207031 -1.390625 0.28125 -1.546875 C 0.351562 -1.710938 0.457031 -1.835938 0.59375 -1.921875 C 0.726562 -2.003906 0.882812 -2.046875 1.0625 -2.046875 Z M 1.0625 -2.046875 "/></g></g></g><g fill="#ffffff" fill-opacity="1"><g transform="translate(16.126888, 4.419357)"><g><path d="M 1.921875 -3.03125 L 1.921875 -0.421875 C 1.921875 -0.304688 1.9375 -0.21875 1.96875 -0.15625 C 2.007812 -0.101562 2.085938 -0.078125 2.203125 -0.078125 L 2.203125 0 C 2.117188 -0.0078125 2.035156 -0.015625 1.953125 -0.015625 C 1.867188 -0.015625 1.785156 -0.0078125 1.703125 0 C 1.628906 0.0078125 1.5625 0.0234375 1.5 0.046875 L 1.5 -2.578125 C 1.5 -2.691406 1.476562 -2.773438 1.4375 -2.828125 C 1.394531 -2.878906 1.320312 -2.90625 1.21875 -2.90625 L 1.21875 -3 C 1.300781 -2.988281 1.378906 -2.984375 1.453125 -2.984375 C 1.546875 -2.984375 1.628906 -2.988281 1.703125 -3 C 1.785156 -3.007812 1.859375 -3.019531 1.921875 -3.03125 Z M 1.046875 -2.046875 C 1.160156 -2.046875 1.265625 -2.019531 1.359375 -1.96875 C 1.453125 -1.925781 1.519531 -1.847656 1.5625 -1.734375 L 1.515625 -1.6875 C 1.472656 -1.78125 1.414062 -1.847656 1.34375 -1.890625 C 1.28125 -1.929688 1.203125 -1.953125 1.109375 -1.953125 C 0.960938 -1.953125 0.84375 -1.875 0.75 -1.71875 C 0.65625 -1.5625 0.613281 -1.320312 0.625 -1 C 0.625 -0.78125 0.640625 -0.601562 0.671875 -0.46875 C 0.710938 -0.332031 0.765625 -0.234375 0.828125 -0.171875 C 0.898438 -0.109375 0.988281 -0.078125 1.09375 -0.078125 C 1.195312 -0.078125 1.285156 -0.117188 1.359375 -0.203125 C 1.441406 -0.285156 1.492188 -0.410156 1.515625 -0.578125 L 1.546875 -0.484375 C 1.515625 -0.316406 1.453125 -0.1875 1.359375 -0.09375 C 1.265625 0 1.132812 0.046875 0.96875 0.046875 C 0.8125 0.046875 0.671875 0.0078125 0.546875 -0.0625 C 0.429688 -0.132812 0.335938 -0.25 0.265625 -0.40625 C 0.203125 -0.5625 0.171875 -0.757812 0.171875 -1 C 0.171875 -1.238281 0.207031 -1.4375 0.28125 -1.59375 C 0.363281 -1.75 0.472656 -1.863281 0.609375 -1.9375 C 0.742188 -2.007812 0.890625 -2.046875 1.046875 -2.046875 Z M 1.046875 -2.046875 "/></g></g></g><g fill="#ffffff" fill-opacity="1"><g transform="translate(18.399163, 4.419357)"><g><path d="M 1.0625 -2.046875 C 1.289062 -2.046875 1.46875 -1.976562 1.59375 -1.84375 C 1.726562 -1.707031 1.796875 -1.492188 1.796875 -1.203125 L 0.453125 -1.203125 L 0.453125 -1.265625 L 1.390625 -1.265625 C 1.390625 -1.390625 1.375 -1.503906 1.34375 -1.609375 C 1.320312 -1.722656 1.285156 -1.8125 1.234375 -1.875 C 1.191406 -1.9375 1.128906 -1.96875 1.046875 -1.96875 C 0.941406 -1.96875 0.847656 -1.910156 0.765625 -1.796875 C 0.679688 -1.679688 0.628906 -1.492188 0.609375 -1.234375 L 0.625 -1.21875 C 0.625 -1.175781 0.617188 -1.132812 0.609375 -1.09375 C 0.609375 -1.050781 0.609375 -1.007812 0.609375 -0.96875 C 0.609375 -0.789062 0.632812 -0.640625 0.6875 -0.515625 C 0.75 -0.398438 0.820312 -0.3125 0.90625 -0.25 C 0.988281 -0.1875 1.078125 -0.15625 1.171875 -0.15625 C 1.242188 -0.15625 1.3125 -0.164062 1.375 -0.1875 C 1.4375 -0.207031 1.5 -0.242188 1.5625 -0.296875 C 1.625 -0.359375 1.675781 -0.429688 1.71875 -0.515625 L 1.796875 -0.484375 C 1.765625 -0.398438 1.71875 -0.316406 1.65625 -0.234375 C 1.59375 -0.148438 1.507812 -0.0820312 1.40625 -0.03125 C 1.3125 0.0195312 1.195312 0.046875 1.0625 0.046875 C 0.875 0.046875 0.710938 0.0078125 0.578125 -0.0625 C 0.453125 -0.144531 0.351562 -0.257812 0.28125 -0.40625 C 0.207031 -0.5625 0.171875 -0.75 0.171875 -0.96875 C 0.171875 -1.195312 0.207031 -1.390625 0.28125 -1.546875 C 0.351562 -1.710938 0.457031 -1.835938 0.59375 -1.921875 C 0.726562 -2.003906 0.882812 -2.046875 1.0625 -2.046875 Z M 1.0625 -2.046875 "/></g></g></g><g fill="#ffffff" fill-opacity="1"><g transform="translate(20.354015, 4.419357)"><g><path d="M 1.078125 -3.03125 C 1.160156 -3.03125 1.226562 -3.019531 1.28125 -3 C 1.34375 -2.976562 1.398438 -2.953125 1.453125 -2.921875 C 1.484375 -2.890625 1.507812 -2.847656 1.53125 -2.796875 C 1.5625 -2.753906 1.578125 -2.707031 1.578125 -2.65625 C 1.578125 -2.59375 1.554688 -2.539062 1.515625 -2.5 C 1.472656 -2.457031 1.414062 -2.4375 1.34375 -2.4375 C 1.28125 -2.4375 1.222656 -2.457031 1.171875 -2.5 C 1.128906 -2.539062 1.109375 -2.597656 1.109375 -2.671875 C 1.109375 -2.722656 1.125 -2.769531 1.15625 -2.8125 C 1.1875 -2.851562 1.226562 -2.878906 1.28125 -2.890625 C 1.28125 -2.910156 1.265625 -2.925781 1.234375 -2.9375 C 1.203125 -2.957031 1.160156 -2.96875 1.109375 -2.96875 C 1.054688 -2.96875 1.007812 -2.957031 0.96875 -2.9375 C 0.925781 -2.914062 0.894531 -2.882812 0.875 -2.84375 C 0.84375 -2.789062 0.820312 -2.710938 0.8125 -2.609375 C 0.8125 -2.515625 0.8125 -2.367188 0.8125 -2.171875 L 0.8125 -2 L 1.21875 -2 L 1.21875 -1.921875 L 0.8125 -1.921875 L 0.8125 -0.40625 C 0.8125 -0.269531 0.84375 -0.179688 0.90625 -0.140625 C 0.976562 -0.0976562 1.078125 -0.078125 1.203125 -0.078125 L 1.203125 0 C 1.140625 0 1.050781 0 0.9375 0 C 0.820312 -0.0078125 0.703125 -0.015625 0.578125 -0.015625 C 0.492188 -0.015625 0.40625 -0.0078125 0.3125 0 C 0.21875 0 0.148438 0 0.109375 0 L 0.109375 -0.078125 C 0.210938 -0.078125 0.285156 -0.0976562 0.328125 -0.140625 C 0.367188 -0.179688 0.390625 -0.253906 0.390625 -0.359375 L 0.390625 -1.921875 L 0.09375 -1.921875 L 0.09375 -2 L 0.390625 -2 C 0.390625 -2.144531 0.394531 -2.269531 0.40625 -2.375 C 0.425781 -2.476562 0.445312 -2.566406 0.46875 -2.640625 C 0.5 -2.710938 0.539062 -2.78125 0.59375 -2.84375 C 0.65625 -2.894531 0.726562 -2.9375 0.8125 -2.96875 C 0.894531 -3.007812 0.984375 -3.03125 1.078125 -3.03125 Z M 1.078125 -3.03125 "/></g></g></g><g fill="#ffffff" fill-opacity="1"><g transform="translate(21.666281, 4.419357)"><g><path d="M 0.578125 -2.96875 C 0.648438 -2.96875 0.710938 -2.941406 0.765625 -2.890625 C 0.828125 -2.847656 0.859375 -2.789062 0.859375 -2.71875 C 0.859375 -2.632812 0.828125 -2.566406 0.765625 -2.515625 C 0.710938 -2.472656 0.648438 -2.453125 0.578125 -2.453125 C 0.492188 -2.453125 0.421875 -2.472656 0.359375 -2.515625 C 0.304688 -2.566406 0.28125 -2.632812 0.28125 -2.71875 C 0.28125 -2.789062 0.304688 -2.847656 0.359375 -2.890625 C 0.421875 -2.941406 0.492188 -2.96875 0.578125 -2.96875 Z M 0.796875 -2.046875 L 0.796875 -0.359375 C 0.796875 -0.253906 0.816406 -0.179688 0.859375 -0.140625 C 0.910156 -0.0976562 0.984375 -0.078125 1.078125 -0.078125 L 1.078125 0 C 1.035156 0 0.96875 0 0.875 0 C 0.78125 -0.0078125 0.6875 -0.015625 0.59375 -0.015625 C 0.507812 -0.015625 0.414062 -0.0078125 0.3125 0 C 0.21875 0 0.148438 0 0.109375 0 L 0.109375 -0.078125 C 0.203125 -0.078125 0.269531 -0.0976562 0.3125 -0.140625 C 0.363281 -0.179688 0.390625 -0.253906 0.390625 -0.359375 L 0.390625 -1.578125 C 0.390625 -1.691406 0.367188 -1.773438 0.328125 -1.828125 C 0.285156 -1.890625 0.210938 -1.921875 0.109375 -1.921875 L 0.109375 -2 C 0.191406 -1.988281 0.269531 -1.984375 0.34375 -1.984375 C 0.4375 -1.984375 0.519531 -1.988281 0.59375 -2 C 0.664062 -2.007812 0.734375 -2.023438 0.796875 -2.046875 Z M 0.796875 -2.046875 "/></g></g></g><g fill="#ffffff" fill-opacity="1"><g transform="translate(22.827578, 4.419357)"><g><path d="M 1.453125 -2.046875 C 1.554688 -2.046875 1.640625 -2.03125 1.703125 -2 C 1.773438 -1.976562 1.832031 -1.945312 1.875 -1.90625 C 1.914062 -1.851562 1.945312 -1.785156 1.96875 -1.703125 C 1.988281 -1.628906 2 -1.53125 2 -1.40625 L 2 -0.359375 C 2 -0.253906 2.019531 -0.179688 2.0625 -0.140625 C 2.101562 -0.0976562 2.175781 -0.078125 2.28125 -0.078125 L 2.28125 0 C 2.238281 0 2.171875 0 2.078125 0 C 1.984375 -0.0078125 1.890625 -0.015625 1.796875 -0.015625 C 1.710938 -0.015625 1.625 -0.0078125 1.53125 0 C 1.445312 0 1.382812 0 1.34375 0 L 1.34375 -0.078125 C 1.425781 -0.078125 1.484375 -0.0976562 1.515625 -0.140625 C 1.554688 -0.179688 1.578125 -0.253906 1.578125 -0.359375 L 1.578125 -1.5 C 1.578125 -1.582031 1.570312 -1.648438 1.5625 -1.703125 C 1.550781 -1.765625 1.523438 -1.816406 1.484375 -1.859375 C 1.441406 -1.898438 1.378906 -1.921875 1.296875 -1.921875 C 1.203125 -1.921875 1.117188 -1.890625 1.046875 -1.828125 C 0.972656 -1.773438 0.910156 -1.703125 0.859375 -1.609375 C 0.816406 -1.515625 0.796875 -1.410156 0.796875 -1.296875 L 0.796875 -0.359375 C 0.796875 -0.253906 0.816406 -0.179688 0.859375 -0.140625 C 0.898438 -0.0976562 0.960938 -0.078125 1.046875 -0.078125 L 1.046875 0 C 1.003906 0 0.941406 0 0.859375 0 C 0.773438 -0.0078125 0.6875 -0.015625 0.59375 -0.015625 C 0.507812 -0.015625 0.414062 -0.0078125 0.3125 0 C 0.21875 0 0.148438 0 0.109375 0 L 0.109375 -0.078125 C 0.203125 -0.078125 0.269531 -0.0976562 0.3125 -0.140625 C 0.363281 -0.179688 0.390625 -0.253906 0.390625 -0.359375 L 0.390625 -1.578125 C 0.390625 -1.691406 0.367188 -1.773438 0.328125 -1.828125 C 0.285156 -1.890625 0.210938 -1.921875 0.109375 -1.921875 L 0.109375 -2 C 0.191406 -1.988281 0.269531 -1.984375 0.34375 -1.984375 C 0.4375 -1.984375 0.519531 -1.988281 0.59375 -2 C 0.664062 -2.007812 0.734375 -2.023438 0.796875 -2.046875 L 0.796875 -1.625 C 0.867188 -1.78125 0.960938 -1.890625 1.078125 -1.953125 C 1.191406 -2.015625 1.316406 -2.046875 1.453125 -2.046875 Z M 1.453125 -2.046875 "/></g></g></g><g fill="#ffffff" fill-opacity="1"><g transform="translate(25.161789, 4.419357)"><g><path d="M 1.0625 -2.046875 C 1.289062 -2.046875 1.46875 -1.976562 1.59375 -1.84375 C 1.726562 -1.707031 1.796875 -1.492188 1.796875 -1.203125 L 0.453125 -1.203125 L 0.453125 -1.265625 L 1.390625 -1.265625 C 1.390625 -1.390625 1.375 -1.503906 1.34375 -1.609375 C 1.320312 -1.722656 1.285156 -1.8125 1.234375 -1.875 C 1.191406 -1.9375 1.128906 -1.96875 1.046875 -1.96875 C 0.941406 -1.96875 0.847656 -1.910156 0.765625 -1.796875 C 0.679688 -1.679688 0.628906 -1.492188 0.609375 -1.234375 L 0.625 -1.21875 C 0.625 -1.175781 0.617188 -1.132812 0.609375 -1.09375 C 0.609375 -1.050781 0.609375 -1.007812 0.609375 -0.96875 C 0.609375 -0.789062 0.632812 -0.640625 0.6875 -0.515625 C 0.75 -0.398438 0.820312 -0.3125 0.90625 -0.25 C 0.988281 -0.1875 1.078125 -0.15625 1.171875 -0.15625 C 1.242188 -0.15625 1.3125 -0.164062 1.375 -0.1875 C 1.4375 -0.207031 1.5 -0.242188 1.5625 -0.296875 C 1.625 -0.359375 1.675781 -0.429688 1.71875 -0.515625 L 1.796875 -0.484375 C 1.765625 -0.398438 1.71875 -0.316406 1.65625 -0.234375 C 1.59375 -0.148438 1.507812 -0.0820312 1.40625 -0.03125 C 1.3125 0.0195312 1.195312 0.046875 1.0625 0.046875 C 0.875 0.046875 0.710938 0.0078125 0.578125 -0.0625 C 0.453125 -0.144531 0.351562 -0.257812 0.28125 -0.40625 C 0.207031 -0.5625 0.171875 -0.75 0.171875 -0.96875 C 0.171875 -1.195312 0.207031 -1.390625 0.28125 -1.546875 C 0.351562 -1.710938 0.457031 -1.835938 0.59375 -1.921875 C 0.726562 -2.003906 0.882812 -2.046875 1.0625 -2.046875 Z M 1.0625 -2.046875 "/></g></g></g><g clip-path="url(#dec16c4426)"><g fill="#ffffff" fill-opacity="1"><g transform="translate(27.116642, 4.419357)"><g><path d="M 1.921875 -3.03125 L 1.921875 -0.421875 C 1.921875 -0.304688 1.9375 -0.21875 1.96875 -0.15625 C 2.007812 -0.101562 2.085938 -0.078125 2.203125 -0.078125 L 2.203125 0 C 2.117188 -0.0078125 2.035156 -0.015625 1.953125 -0.015625 C 1.867188 -0.015625 1.785156 -0.0078125 1.703125 0 C 1.628906 0.0078125 1.5625 0.0234375 1.5 0.046875 L 1.5 -2.578125 C 1.5 -2.691406 1.476562 -2.773438 1.4375 -2.828125 C 1.394531 -2.878906 1.320312 -2.90625 1.21875 -2.90625 L 1.21875 -3 C 1.300781 -2.988281 1.378906 -2.984375 1.453125 -2.984375 C 1.546875 -2.984375 1.628906 -2.988281 1.703125 -3 C 1.785156 -3.007812 1.859375 -3.019531 1.921875 -3.03125 Z M 1.046875 -2.046875 C 1.160156 -2.046875 1.265625 -2.019531 1.359375 -1.96875 C 1.453125 -1.925781 1.519531 -1.847656 1.5625 -1.734375 L 1.515625 -1.6875 C 1.472656 -1.78125 1.414062 -1.847656 1.34375 -1.890625 C 1.28125 -1.929688 1.203125 -1.953125 1.109375 -1.953125 C 0.960938 -1.953125 0.84375 -1.875 0.75 -1.71875 C 0.65625 -1.5625 0.613281 -1.320312 0.625 -1 C 0.625 -0.78125 0.640625 -0.601562 0.671875 -0.46875 C 0.710938 -0.332031 0.765625 -0.234375 0.828125 -0.171875 C 0.898438 -0.109375 0.988281 -0.078125 1.09375 -0.078125 C 1.195312 -0.078125 1.285156 -0.117188 1.359375 -0.203125 C 1.441406 -0.285156 1.492188 -0.410156 1.515625 -0.578125 L 1.546875 -0.484375 C 1.515625 -0.316406 1.453125 -0.1875 1.359375 -0.09375 C 1.265625 0 1.132812 0.046875 0.96875 0.046875 C 0.8125 0.046875 0.671875 0.0078125 0.546875 -0.0625 C 0.429688 -0.132812 0.335938 -0.25 0.265625 -0.40625 C 0.203125 -0.5625 0.171875 -0.757812 0.171875 -1 C 0.171875 -1.238281 0.207031 -1.4375 0.28125 -1.59375 C 0.363281 -1.75 0.472656 -1.863281 0.609375 -1.9375 C 0.742188 -2.007812 0.890625 -2.046875 1.046875 -2.046875 Z M 1.046875 -2.046875 "/></g></g></g></g></g></g></svg>