<svg xmlns="http://www.w3.org/2000/svg" width="166.641" height="73.828" viewBox="0 0 166.641 73.828"><g transform="translate(-208.028 -139.373)"><g transform="translate(208.028 139.373)"><path d="M228.858,170.931c9.925,1.318,12.8,6.218,12.8,11.3,0,7.137-5.667,12.161-15.071,12.161-1.869,0-5.637-.184-10.783-.184-2.941,0-6.035.061-7.78.184V193.14c4.258-.184,5.085-.827,5.085-5.391V156.626c0-4.564-.827-5.208-5.085-5.391v-1.256c1.746.122,4.9.184,7.658.184,3.952,0,7.964-.123,9.465-.123,8.792,0,13.233,4.074,13.233,9.864,0,4.442-2.512,8.761-9.527,10.905Zm-9.925-14.305v14.183h4.227c7.382,0,9.22-4.779,9.22-10.231,0-6.157-2.512-9.343-8.792-9.343C219.76,151.235,218.933,152.307,218.933,156.626Zm16.45,25.333c0-6.372-3.216-10.078-11.181-10.078h-5.269v15.868c0,4.38.827,5.207,4.717,5.207C231.86,192.956,235.383,189,235.383,181.959Z" transform="translate(-208.028 -145.261)" fill="#fff"/><path d="M321.538,201.888c0,3.768,1.133,5.514,4.779,5.514v1.317c-1.317-.123-2.634-.184-3.89-.184a20.02,20.02,0,0,0-6.525.888V202.01c-2.144,5.452-6.28,7.535-10.292,7.535a8.648,8.648,0,0,1-6.525-2.389c-1.562-1.685-2.083-4.258-2.083-8.21V183.2c0-3.768-1.1-5.544-4.748-5.544V176.34c1.318.123,2.635.184,3.89.184a21.048,21.048,0,0,0,6.525-.858v24.659c0,3.89.245,7.2,4.748,7.2,4.9,0,8.485-4.963,8.485-11.365V183.2c0-3.768-1.133-5.544-4.779-5.544V176.34c1.317.123,2.635.184,3.89.184a20.919,20.919,0,0,0,6.525-.858Z" transform="translate(-254.79 -159.523)" fill="#fff"/><path d="M396.073,177.55a1.964,1.964,0,0,0,1.1.521c.735,0,1.195-.888,1.409-2.757h1.44c-.184,2.3-.245,5.269-.245,10.66h-1.44c-.766-4.656-2.879-9.527-8.546-9.527-2.941,0-5.146,1.685-5.146,4.809,0,3.768,3.768,5.514,8.056,8.3,4.748,3.063,8.577,5.82,8.577,10.967,0,5.759-5.024,8.792-10.721,8.792a13.01,13.01,0,0,1-4.963-.888,13.265,13.265,0,0,1-2.573-1.685.811.811,0,0,0-.582-.245c-.552,0-1.042.8-1.287,2.359h-1.44c.184-2.7.245-6.188.245-12.529h1.44c.827,7.015,2.451,11.733,8.731,11.733,2.512,0,5.575-1.5,5.575-5.974,0-3.645-3-5.636-7.107-8.209-4.564-2.88-8.639-5.33-8.639-10.538,0-5.575,4.319-8.087,9.282-8.087A11.007,11.007,0,0,1,396.073,177.55Z" transform="translate(-303.348 -159.293)" fill="#fff"/><path d="M467.494,172.4c0,11.273-6.463,17-14,17a11.129,11.129,0,0,1-8.271-3.676l-4.473,3.8-1.041-.459a13.756,13.756,0,0,0,.429-3.615V146.909c0-3.768-1.133-5.514-4.779-5.514v-1.317c1.317.122,2.634.184,3.89.184a20.021,20.021,0,0,0,6.525-.888v22.668a10.5,10.5,0,0,1,9.8-6.708C462.409,155.333,467.494,160.969,467.494,172.4Zm-6.1,0c0-10.17-2.45-15.194-7.658-15.194-3.339,0-6.678,2.665-7.964,7.811v19.819a10.042,10.042,0,0,0,7.229,3.124C458.581,187.956,461.4,183.055,461.4,172.4Z" transform="translate(-334.243 -139.373)" fill="#fff"/><path d="M543.669,177.181v1.256c-1.562.184-2.88,1.195-4.074,4.411L529.3,209.805l-2.144,5.452a10.908,10.908,0,0,1-2.7,4.411,7.439,7.439,0,0,1-4.9,1.624c-2.389,0-4.258-1.317-4.258-3.768a3.1,3.1,0,0,1,3.339-3.308,2.879,2.879,0,0,1,3.186,2.941,3.148,3.148,0,0,1-1.684,2.818.774.774,0,0,0,.367.061c2.267,0,4.013-1.44,5.33-4.9l2.236-5.729-11.4-27.385c-1.624-3.278-3.247-3.523-4.258-3.523v-1.318a44.812,44.812,0,0,0,6.157.4c2.542,0,5.637-.214,8.148-.4V178.5c-2.359,0-4.38,0-4.38,2.175a8.735,8.735,0,0,0,.8,3.094l7.566,18.747,6.923-18.165a8.852,8.852,0,0,0,.674-2.88c0-1.991-1.5-2.818-4.687-3.033v-1.256c2.206.123,3.339.184,5.269.184C540.851,177.365,542.352,177.3,543.669,177.181Z" transform="translate(-377.028 -160.364)" fill="#fff"/></g><text transform="translate(251.738 210.201)" fill="#bed1ec" font-size="9" font-family="OpenSans, Open Sans" letter-spacing="0.08em"><tspan x="0" y="0">SLEEP CLEAN</tspan></text></g></svg>